<svg width="35" height="35" viewBox="0 0 35 35" fill="none" xmlns="http://www.w3.org/2000/svg">
<path d="M17.4998 10.2083V30.625M17.4998 10.2083C17.4998 8.66124 16.8853 7.17751 15.7913 6.08354C14.6973 4.98958 13.2136 4.375 11.6665 4.375H4.37484C3.98806 4.375 3.61713 4.52865 3.34364 4.80214C3.07015 5.07563 2.9165 5.44656 2.9165 5.83333V24.7917C2.9165 25.1784 3.07015 25.5494 3.34364 25.8229C3.61713 26.0964 3.98806 26.25 4.37484 26.25H13.1248C14.2852 26.25 15.398 26.7109 16.2184 27.5314C17.0389 28.3519 17.4998 29.4647 17.4998 30.625M17.4998 10.2083C17.4998 8.66124 18.1144 7.17751 19.2084 6.08354C20.3023 4.98958 21.7861 4.375 23.3332 4.375H30.6248C31.0116 4.375 31.3825 4.52865 31.656 4.80214C31.9295 5.07563 32.0832 5.44656 32.0832 5.83333V24.7917C32.0832 25.1784 31.9295 25.5494 31.656 25.8229C31.3825 26.0964 31.0116 26.25 30.6248 26.25H21.8748C20.7145 26.25 19.6017 26.7109 18.7812 27.5314C17.9608 28.3519 17.4998 29.4647 17.4998 30.625M23.3332 17.5H26.2498M23.3332 11.6667H26.2498M8.74984 17.5H11.6665M8.74984 11.6667H11.6665" stroke="#626161" stroke-width="2" stroke-linecap="round" stroke-linejoin="round"/>
</svg>
